<svg width="112" height="112" viewBox="0 0 112 112" fill="none" xmlns="http://www.w3.org/2000/svg">
<g filter="url(#filter0_d_4_23)">
<path d="M56 0C57.1046 0 58 0.895431 58 2V46.7109L89.9414 14.7695C90.7225 13.9886 91.9885 13.9885 92.7695 14.7695C93.5505 15.5505 93.5504 16.8166 92.7695 17.5977L60.3672 50H106C107.105 50 108 50.8954 108 52C108 53.1046 107.105 54 106 54H61.2891L92.7695 85.4805C93.5505 86.2615 93.5505 87.5276 92.7695 88.3086C91.9885 89.0896 90.7225 89.0895 89.9414 88.3086L58 56.3672V102C58 103.105 57.1046 104 56 104C54.8954 104 54 103.105 54 102V56.3672L22.0586 88.3086C21.2775 89.0895 20.0115 89.0896 19.2305 88.3086C18.4495 87.5276 18.4495 86.2615 19.2305 85.4805L50.7109 54H6C4.89543 54 4 53.1046 4 52C4 50.8954 4.89543 50 6 50H51.6328L19.2305 17.5977C18.4496 16.8166 18.4495 15.5505 19.2305 14.7695C20.0115 13.9885 21.2775 13.9886 22.0586 14.7695L54 46.7109V2C54 0.895431 54.8954 0 56 0Z" fill="url(#paint0_linear_4_23)"/>
</g>
<defs>
<filter id="filter0_d_4_23" x="0" y="0" width="112" height="112" filterUnits="userSpaceOnUse" color-interpolation-filters="sRGB">
<feFlood flood-opacity="0" result="BackgroundImageFix"/>
<feColorMatrix in="SourceAlpha" type="matrix" values="0 0 0 0 0 0 0 0 0 0 0 0 0 0 0 0 0 0 127 0" result="hardAlpha"/>
<feOffset dy="4"/>
<feGaussianBlur stdDeviation="2"/>
<feComposite in2="hardAlpha" operator="out"/>
<feColorMatrix type="matrix" values="0 0 0 0 0 0 0 0 0 0 0 0 0 0 0 0 0 0 0.25 0"/>
<feBlend mode="normal" in2="BackgroundImageFix" result="effect1_dropShadow_4_23"/>
<feBlend mode="normal" in="SourceGraphic" in2="effect1_dropShadow_4_23" result="shape"/>
</filter>
<linearGradient id="paint0_linear_4_23" x1="88.5" y1="9.5" x2="46" y2="54" gradientUnits="userSpaceOnUse">
<stop stop-color="#AFF9CE"/>
<stop offset="1" stop-color="#11803F"/>
</linearGradient>
</defs>
</svg>
