<svg width="180" height="181" viewBox="0 0 180 181" fill="none" xmlns="http://www.w3.org/2000/svg">
<path d="M129.448 136.437C131.605 138.594 131.605 142.091 129.448 144.248C127.291 146.405 123.793 146.405 121.636 144.249L108.399 131.012L90.8377 148.574C87.7137 151.697 82.6482 151.697 79.524 148.574L65 134.05L21.1815 177.868C18.0574 180.992 12.9919 180.992 9.86775 177.868L2.7366 170.737C-0.38754 167.613 -0.38744 162.547 2.7366 159.423L46.5551 115.605L32.0311 101.081C28.907 97.9565 28.9071 92.8911 32.0311 89.7669L49.5928 72.2053L36.1391 58.7516C33.982 56.5945 33.9821 53.0961 36.1391 50.9389C38.2963 48.7819 41.794 48.7825 43.9511 50.9396L129.448 136.437ZM177.389 9.91153C180.513 13.0357 180.513 18.101 177.389 21.2252L133.571 65.0438L148.095 79.5678C151.219 82.692 151.219 87.7573 148.095 90.8815L130.533 108.443L143.987 121.897C146.144 124.054 146.144 127.552 143.987 129.71C141.829 131.866 138.332 131.866 136.175 129.709L50.6776 44.2117C48.5208 42.0546 48.5207 38.5575 50.6776 36.4004C52.8347 34.2433 56.3324 34.2428 58.4896 36.3997L71.7265 49.6366L89.2881 32.0749C92.4122 28.9508 97.4776 28.951 100.602 32.0749L115.126 46.5989L158.944 2.78039C162.069 -0.343755 167.134 -0.343648 170.258 2.78039L177.389 9.91153Z" fill="black"/>
</svg>
