<svg width="104" height="54" viewBox="0 0 104 54" fill="none" xmlns="http://www.w3.org/2000/svg">
<path d="M52.5 35C57.7467 35 62 39.2533 62 44.5C62 49.7467 57.7467 54 52.5 54C47.2533 54 43 49.7467 43 44.5C43 39.2533 47.2533 35 52.5 35ZM102 25C103.105 25 104 25.8954 104 27C104 28.1046 103.105 29 102 29H2C0.895431 29 0 28.1046 0 27C0 25.8954 0.895431 25 2 25H102ZM52.5 0C57.7467 0 62 4.25329 62 9.5C62 14.7467 57.7467 19 52.5 19C47.2533 19 43 14.7467 43 9.5C43 4.25329 47.2533 0 52.5 0Z" fill="black"/>
</svg>
