<svg width="144" height="163" viewBox="0 0 144 163" fill="none" xmlns="http://www.w3.org/2000/svg">
<path d="M125.788 99.0381C128.105 99.0382 130.119 100.631 130.653 102.887L143.418 156.849C144.161 159.989 141.779 163 138.552 163H111.209C110.343 163 109.575 162.442 109.307 161.617L97.601 125.535C97.0029 123.691 94.3945 123.691 93.7963 125.535L82.0912 161.617C81.8238 162.442 81.0555 163 80.1889 163H51.685C50.763 163 49.9601 162.369 49.7416 161.474L44.3403 139.328C43.8437 137.294 40.9501 137.294 40.4536 139.328L35.0512 161.474C34.8327 162.369 34.0307 163 33.1088 163H5.0014C1.90129 163 -0.451875 160.208 0.0736677 157.152L9.35687 103.19C9.76959 100.792 11.8505 99.0383 14.2846 99.0381H125.788ZM70.2514 0C75.3792 0.000121118 79.5356 4.15737 79.5356 9.28516V63.2744H109.743C120.788 63.2744 129.743 72.2287 129.743 83.2744V84.0342C129.742 86.2431 127.952 88.0342 125.743 88.0342H14.0717C11.8628 88.0341 10.072 86.2431 10.0717 84.0342V83.2744C10.0717 72.2288 19.0261 63.2745 30.0717 63.2744H60.9662V9.28516C60.9662 4.1573 65.1235 0 70.2514 0Z" fill="black"/>
</svg>
