<svg width="128" height="85" viewBox="0 0 128 85" fill="none" xmlns="http://www.w3.org/2000/svg">
<path d="M16.6426 48.3226C17.6189 47.3465 19.2015 47.3463 20.1777 48.3226C21.1538 49.2988 21.1537 50.8814 20.1777 51.8577L8.53516 63.5003H125.5C126.881 63.5003 128 64.6196 128 66.0003C128 67.3809 126.881 68.5003 125.5 68.5003H8.53516L20.1777 80.1429C21.1536 81.1192 21.1539 82.7019 20.1777 83.678C19.2015 84.654 17.6189 84.6539 16.6426 83.678L0.732422 67.7679C-0.243837 66.7916 -0.243732 65.209 0.732422 64.2327L16.6426 48.3226ZM107.822 1.32256C108.798 0.346334 110.381 0.346503 111.357 1.32256L127.268 17.2327C128.244 18.209 128.244 19.7916 127.268 20.7679L111.357 36.678C110.381 37.6539 108.798 37.654 107.822 36.678C106.846 35.7019 106.846 34.1192 107.822 33.1429L119.465 21.5003H2.5C1.11939 21.5003 0.000171099 20.3809 0 19.0003C0 17.6196 1.11929 16.5003 2.5 16.5003H119.465L107.822 4.85772C106.846 3.88144 106.846 2.2988 107.822 1.32256Z" fill="url(#paint0_linear_4_41)"/>
<defs>
<linearGradient id="paint0_linear_4_41" x1="128" y1="5" x2="4.29842e-06" y2="79.5" gradientUnits="userSpaceOnUse">
<stop stop-color="#ED6FBF"/>
<stop offset="1" stop-color="#530A38"/>
</linearGradient>
</defs>
</svg>
