<svg width="129" height="85" viewBox="0 0 129 85" fill="none" xmlns="http://www.w3.org/2000/svg">
<path d="M17.1426 48.3226C18.1189 47.3465 19.7015 47.3463 20.6777 48.3226C21.6538 49.2988 21.6537 50.8814 20.6777 51.8577L9.03516 63.5003H126C127.381 63.5003 128.5 64.6196 128.5 66.0003C128.5 67.3809 127.381 68.5003 126 68.5003H9.03516L20.6777 80.1429C21.6536 81.1192 21.6539 82.7019 20.6777 83.678C19.7015 84.6541 18.1189 84.6539 17.1426 83.678L1.23242 67.7679C0.256163 66.7916 0.256268 65.2091 1.23242 64.2327L17.1426 48.3226ZM108.322 1.32257C109.298 0.346345 110.881 0.346514 111.857 1.32257L127.768 17.2327C128.744 18.2091 128.744 19.7916 127.768 20.7679L111.857 36.678C110.881 37.6539 109.298 37.6541 108.322 36.678C107.346 35.7019 107.346 34.1192 108.322 33.1429L119.965 21.5003H3C1.61939 21.5003 0.500171 20.3809 0.5 19.0003C0.5 17.6196 1.61929 16.5003 3 16.5003H119.965L108.322 4.85773C107.346 3.88145 107.346 2.29881 108.322 1.32257Z" fill="black"/>
</svg>
