<svg width="186" height="45" viewBox="0 0 186 45" fill="none" xmlns="http://www.w3.org/2000/svg">
<path d="M45 45H0V0H45V45ZM186 45H141V0H186V45ZM111.483 2.91602C112.269 2.2755 113.428 2.32075 114.16 3.05273C114.892 3.78491 114.937 4.94395 114.297 5.72949L114.16 5.88184L96.9346 23.1064L114.16 40.332C114.941 41.1131 114.941 42.3802 114.16 43.1611C113.379 43.9417 112.113 43.9414 111.332 43.1611L94.1064 25.9355L76.8818 43.1602C76.1008 43.9412 74.8338 43.9412 74.0527 43.1602C73.272 42.3792 73.2722 41.113 74.0527 40.332L91.2773 23.1064L74.0527 5.88184L73.916 5.73047C73.2753 4.94501 73.3207 3.786 74.0527 3.05371C74.785 2.32145 75.9439 2.27621 76.7295 2.91699L76.8818 3.05371L94.1064 20.2783L111.332 3.05273L111.483 2.91602Z" fill="url(#paint0_linear_4_38)"/>
<defs>
<linearGradient id="paint0_linear_4_38" x1="207.5" y1="-9" x2="-13" y2="45" gradientUnits="userSpaceOnUse">
<stop stop-color="#9E54ED"/>
<stop offset="1" stop-color="#1B0532"/>
</linearGradient>
</defs>
</svg>
