<svg width="77" height="80" viewBox="0 0 77 80" fill="none" xmlns="http://www.w3.org/2000/svg">
<path d="M20.2217 7.61719C27.3375 3.7784 35.4907 2.27131 43.5254 3.3291C51.928 4.43535 59.7308 8.28354 65.7236 14.2764C71.7165 20.2692 75.5647 28.072 76.6709 36.4746C77.7771 44.8773 76.0794 53.4103 71.8418 60.75C67.6042 68.0896 61.0634 73.826 53.2334 77.0693C45.4034 80.3126 36.7215 80.882 28.5352 78.6885C20.3489 76.4949 13.1154 71.6611 7.95605 64.9375C2.7967 58.2137 -5.19804e-10 49.9752 0 41.5H3.84961C3.84961 49.1276 6.36732 56.5423 11.0107 62.5938C15.6541 68.645 22.1646 72.9956 29.5322 74.9697C36.8998 76.9438 44.7129 76.4315 51.7598 73.5127C58.8068 70.5937 64.694 65.4309 68.5078 58.8252C72.3216 52.2195 73.8491 44.5399 72.8535 36.9775C71.8579 29.4151 68.3945 22.3926 63.001 16.999C57.6074 11.6055 50.5849 8.14209 43.0225 7.14648C35.8058 6.19645 28.4829 7.54485 22.0879 10.9844L26.3926 18.75H5.60742L16 0L20.2217 7.61719Z" fill="black"/>
</svg>
