<svg width="271" height="363" viewBox="0 0 271 363" fill="none" xmlns="http://www.w3.org/2000/svg">
<path d="M230.285 1.4652C232.237 -0.487422 235.402 -0.487423 237.355 1.4652L269.175 33.2845C271.128 35.2372 271.128 38.4033 269.175 40.3558C267.223 42.3083 264.057 42.308 262.104 40.3558L238.82 17.0716V104H238.816C238.684 131.27 227.798 157.394 208.505 176.686C190.159 195.033 165.633 205.777 139.82 206.9V363H129.82V206.852C104.374 205.499 80.2441 194.795 62.1344 176.686C42.8423 157.394 31.9545 131.27 31.8229 104H31.8199V17.0716L8.53575 40.3558C6.58325 42.3083 3.4171 42.3081 1.46446 40.3558C-0.488159 38.4032 -0.488146 35.2372 1.46446 33.2845L33.2848 1.4652C35.2374 -0.48742 38.4025 -0.487423 40.3551 1.4652L72.1754 33.2845C74.1276 35.2372 74.1279 38.4033 72.1754 40.3558C70.2229 42.3083 67.0568 42.308 65.1041 40.3558L41.8199 17.0716V103.5H41.8395C41.8396 128.293 51.6887 152.069 69.2193 169.6C86.7502 187.131 110.528 196.98 135.32 196.98C160.112 196.98 183.889 187.131 201.42 169.6C218.95 152.069 228.799 128.293 228.799 103.5H228.82V17.0716L205.536 40.3558C203.583 42.3083 200.417 42.3081 198.464 40.3558C196.512 38.4032 196.512 35.2372 198.464 33.2845L230.285 1.4652Z" fill="url(#paint0_linear_5_55)"/>
<defs>
<linearGradient id="paint0_linear_5_55" x1="323" y1="-5.00001" x2="-56" y2="317" gradientUnits="userSpaceOnUse">
<stop stop-color="#F5C867"/>
<stop offset="1" stop-color="#7C5809"/>
</linearGradient>
</defs>
</svg>
