<svg width="271" height="363" viewBox="0 0 271 363" fill="none" xmlns="http://www.w3.org/2000/svg">
<path d="M230.465 1.46521C232.418 -0.487409 235.583 -0.487411 237.536 1.46521L269.356 33.2845C271.308 35.2372 271.308 38.4033 269.356 40.3558C267.403 42.3083 264.237 42.3081 262.285 40.3558L239 17.0717V104H238.996C238.865 131.27 227.978 157.394 208.686 176.686C190.339 195.033 165.814 205.777 140 206.9V363H130V206.852C104.554 205.499 80.4245 194.795 62.3148 176.686C43.0228 157.394 32.135 131.27 32.0033 104H32.0004V17.0717L8.7162 40.3558C6.76371 42.3083 3.59756 42.3081 1.64491 40.3558C-0.307702 38.4032 -0.30769 35.2372 1.64491 33.2845L33.4652 1.46521C35.4178 -0.487407 38.5829 -0.48741 40.5355 1.46521L72.3559 33.2845C74.3081 35.2372 74.3083 38.4033 72.3559 40.3558C70.4034 42.3083 67.2372 42.3081 65.2846 40.3558L42.0004 17.0717V103.5H42.0199C42.02 128.293 51.8691 152.069 69.3998 169.6C86.9306 187.131 110.708 196.98 135.5 196.98C160.293 196.98 184.069 187.131 201.6 169.6C219.131 152.069 228.98 128.293 228.98 103.5H229V17.0717L205.716 40.3558C203.764 42.3083 200.598 42.3081 198.645 40.3558C196.692 38.4032 196.692 35.2372 198.645 33.2845L230.465 1.46521Z" fill="black"/>
</svg>
