<svg width="118" height="119" viewBox="0 0 118 119" fill="none" xmlns="http://www.w3.org/2000/svg">
<path d="M71.8737 72.8737C72.6547 72.0926 73.9211 72.0926 74.7021 72.8737L113.715 111.886L113.714 98.7141C113.714 97.6097 114.61 96.7137 115.714 96.7137C116.819 96.7138 117.715 97.6097 117.715 98.7141L117.714 116.714C117.714 117.819 116.819 118.714 115.714 118.714L97.7142 118.715C96.6097 118.715 95.7138 117.819 95.7137 116.714C95.7137 115.61 96.6097 114.714 97.7142 114.714L110.886 114.715L71.8737 75.7021C71.0926 74.9211 71.0926 73.6547 71.8737 72.8737ZM48.5392 49.5392C54.397 43.6813 63.8945 43.6813 69.7524 49.5392C75.61 55.397 75.6102 64.8946 69.7524 70.7524C63.8946 76.6102 54.397 76.61 48.5392 70.7524C42.6813 64.8945 42.6813 55.397 48.5392 49.5392ZM50.6605 51.6605C45.9742 56.3468 45.9742 63.9447 50.6605 68.631C55.3468 73.3171 62.9448 73.3173 67.631 68.631C72.3173 63.9448 72.3171 56.3468 67.631 51.6605C62.9448 46.9742 55.3468 46.9742 50.6605 51.6605ZM0.171402 2.87011C0.171402 1.76561 1.06672 0.870443 2.17119 0.870322L20.1713 0.869632C21.2758 0.869714 22.1718 1.76559 22.1718 2.87011C22.1717 3.97452 21.2758 4.8705 20.1713 4.87059L6.9994 4.86989L46.0118 43.8823C46.7929 44.6634 46.7929 45.9297 46.0118 46.7107C45.2307 47.4915 43.9644 47.4917 43.1834 46.7107L4.17098 7.69832L4.17167 20.8703C4.17146 21.9747 3.27563 22.8707 2.17119 22.8707C1.06685 22.8706 0.170918 21.9746 0.170712 20.8703L0.171402 2.87011Z" fill="url(#paint0_linear_4_32)"/>
<defs>
<linearGradient id="paint0_linear_4_32" x1="-24" y1="35.5" x2="145.5" y2="55" gradientUnits="userSpaceOnUse">
<stop stop-color="#052E4C"/>
<stop offset="1" stop-color="#72B1DE"/>
</linearGradient>
</defs>
</svg>
