<svg width="118" height="119" viewBox="0 0 118 119" fill="none" xmlns="http://www.w3.org/2000/svg">
<path d="M72.0062 72.6127C72.7873 71.8317 74.0536 71.8317 74.8346 72.6127L113.847 111.625L113.846 98.4532C113.846 97.3487 114.742 96.4527 115.847 96.4527C116.951 96.4528 117.847 97.3488 117.847 98.4532L117.847 116.453C117.846 117.558 116.951 118.453 115.847 118.453L97.8467 118.454C96.7423 118.454 95.8463 117.558 95.8462 116.453C95.8462 115.349 96.7422 114.453 97.8467 114.453L111.019 114.454L72.0062 75.4412C71.2252 74.6601 71.2252 73.3938 72.0062 72.6127ZM48.6717 49.2782C54.5295 43.4203 64.027 43.4203 69.8849 49.2782C75.7425 55.1361 75.7427 64.6336 69.8849 70.4914C64.0271 76.3492 54.5296 76.3491 48.6717 70.4914C42.8138 64.6335 42.8138 55.1361 48.6717 49.2782ZM50.793 51.3995C46.1067 56.0858 46.1067 63.6838 50.793 68.3701C55.4793 73.0562 63.0773 73.0563 67.7636 68.3701C72.4498 63.6839 72.4496 56.0858 67.7636 51.3995C63.0773 46.7132 55.4793 46.7132 50.793 51.3995ZM0.303925 2.60915C0.303925 1.50466 1.19924 0.609487 2.30371 0.609366L20.3039 0.608676C21.4084 0.608758 22.3043 1.50463 22.3043 2.60915C22.3042 3.71357 21.4083 4.60955 20.3039 4.60963L7.13192 4.60894L46.1443 43.6213C46.9254 44.4024 46.9254 45.6687 46.1443 46.4498C45.3633 47.2306 44.0969 47.2307 43.3159 46.4498L4.3035 7.43737L4.30419 20.6093C4.30398 21.7137 3.40815 22.6098 2.30371 22.6098C1.19937 22.6097 0.30344 21.7136 0.303234 20.6093L0.303925 2.60915Z" fill="black"/>
</svg>
